# xmcd
#
# Track frame offsets:
#	150
#	15321
#	32066
#	49089
#	69968
#	85092
#	102211
#	116597
#	132262
#	147236
#	165517
#	176771
#	187836
#	199216
#	212986
#	230395
#	240820
#	255492
#	269086
#	283599
#
# Disc length: 3969 seconds
# Revision: 1
# Processed by: cddbd v1.5.2PL0 Copyright (c) Steve Scherf et al.
# Submitted via: dBpowerAMP V12.0
#
DISCID=110f7f14
DTITLE=RandyTravis,AKARandyBruceTraywick,Marshville,NC - Three Wooden Crosses: The Inspirational Hits Of
DYEAR=2009
DGENRE=Country
TTITLE0=Three Wooden Crosses
TTITLE1=Four Walls
TTITLE2=Angels
TTITLE3=Just A Closer Walk With Thee (Duet With John Anderson)
TTITLE4=In The Garden
TTITLE5=Faith In You
TTITLE6=Love Lifted Me (Duet With Mac Powell Of Third Day)
TTITLE7=Blessed Assurance
TTITLE8=Softly And Tenderly
TTITLE9=Raise Him Up
TTITLE10=He's My Rock, My Sword, My Shield
TTITLE11=Sweet By And By
TTITLE12=Everywhere We Go
TTITLE13=Rise And Shine
TTITLE14=Were You There?
TTITLE15=He's Got The Whole World In His Hands
TTITLE16=Shall We Gather At The River?
TTITLE17=Pray For The Fish
TTITLE18=Swing Down Chariot (With The Blind Boys Of Alabama)
TTITLE19=Will The Circle Be Unbroken?
EXTD=
EXTT0=
EXTT1=
EXTT2=
EXTT3=
EXTT4=
EXTT5=
EXTT6=
EXTT7=
EXTT8=
EXTT9=
EXTT10=
EXTT11=
EXTT12=
EXTT13=
EXTT14=
EXTT15=
EXTT16=
EXTT17=
EXTT18=
EXTT19=
PLAYORDER=
